<?xml version="1.0" encoding="iso-8859-1"?>
<!-- Generator: Adobe Illustrator 19.0.0, SVG Export Plug-In . SVG Version: 6.00 Build 0)  -->
<svg version="1.1" id="Layer_1" xmlns="http://www.w3.org/2000/svg" xmlns:xlink="http://www.w3.org/1999/xlink" x="0px" y="0px"
	 viewBox="0 0 512 512" style="enable-background:new 0 0 512 512;" xml:space="preserve">
<g>
	<g>
		<path d="M511.893,106.133c-0.043-0.789-0.256-1.536-0.469-2.304c-0.171-0.619-0.32-1.237-0.597-1.813
			c-0.107-0.213-0.085-0.448-0.213-0.64c-0.256-0.427-0.661-0.704-0.939-1.088c-0.427-0.555-0.853-1.109-1.387-1.557
			c-0.533-0.469-1.131-0.811-1.728-1.173c-0.576-0.32-1.131-0.64-1.749-0.853c-0.725-0.256-1.451-0.363-2.219-0.448
			c-0.448-0.064-0.811-0.256-1.259-0.256H160c-0.213,0-0.384,0.107-0.597,0.128c-0.747,0.043-1.451,0.235-2.176,0.427
			c-0.661,0.192-1.323,0.341-1.92,0.64c-0.192,0.107-0.405,0.107-0.597,0.213L5.376,182.741c-0.405,0.235-0.661,0.619-1.024,0.896
			c-0.576,0.427-1.131,0.853-1.621,1.408c-0.491,0.555-0.832,1.152-1.195,1.771c-0.32,0.533-0.619,1.067-0.811,1.664
			c-0.277,0.768-0.405,1.557-0.491,2.368C0.192,191.232,0,191.595,0,192v213.333c0,0.192,0.107,0.341,0.107,0.533
			c0.043,0.789,0.256,1.536,0.469,2.304c0.171,0.619,0.32,1.237,0.597,1.813c0.107,0.213,0.085,0.448,0.213,0.64
			c0.171,0.299,0.491,0.405,0.661,0.661c0.747,1.067,1.621,1.941,2.688,2.667c0.405,0.277,0.725,0.555,1.152,0.768
			c1.451,0.768,3.029,1.28,4.779,1.28H352c1.749,0,3.349-0.533,4.8-1.28c0.149-0.085,0.341-0.043,0.491-0.128l149.333-85.333
			c0.405-0.235,0.661-0.619,1.024-0.896c0.576-0.448,1.152-0.875,1.621-1.408c0.491-0.555,0.832-1.152,1.195-1.771
			c0.32-0.533,0.619-1.067,0.811-1.664c0.277-0.768,0.405-1.557,0.491-2.368c0.043-0.384,0.235-0.747,0.235-1.152V106.667
			C512,106.475,511.893,106.325,511.893,106.133z M149.333,125.035v56.299H50.837L149.333,125.035z M21.333,202.667h128v111.147
			l-128,73.152V202.667z M341.333,394.667H50.837l112-64h178.496V394.667z M341.333,309.333H170.667V202.667h170.667V309.333z
			 M349.163,181.333H170.667v-64h290.496L349.163,181.333z M362.667,386.965v-56.299h98.496L362.667,386.965z M490.667,309.333h-128
			V198.187l128-73.152V309.333z"/>
	</g>
</g>
<g>
</g>
<g>
</g>
<g>
</g>
<g>
</g>
<g>
</g>
<g>
</g>
<g>
</g>
<g>
</g>
<g>
</g>
<g>
</g>
<g>
</g>
<g>
</g>
<g>
</g>
<g>
</g>
<g>
</g>
</svg>
