<?xml version="1.0" encoding="iso-8859-1"?>
<!-- Generator: Adobe Illustrator 19.0.0, SVG Export Plug-In . SVG Version: 6.00 Build 0)  -->
<svg version="1.1" id="Layer_1" xmlns="http://www.w3.org/2000/svg" xmlns:xlink="http://www.w3.org/1999/xlink" x="0px" y="0px"
	 viewBox="0 0 512 512" style="enable-background:new 0 0 512 512;" xml:space="preserve">
<g>
	<g>
		<path d="M511.851,105.984c-0.043-0.619-0.213-1.195-0.363-1.813c-0.192-0.789-0.384-1.557-0.747-2.261
			c-0.085-0.171-0.085-0.363-0.171-0.512c-0.213-0.363-0.555-0.576-0.789-0.896c-0.469-0.64-0.96-1.259-1.557-1.792
			c-0.512-0.448-1.045-0.768-1.621-1.088c-0.597-0.341-1.152-0.661-1.813-0.896c-0.747-0.256-1.493-0.363-2.261-0.448
			C502.123,96.192,501.76,96,501.333,96H160c-0.192,0-0.363,0.107-0.555,0.107c-0.768,0.043-1.493,0.235-2.261,0.448
			c-0.64,0.192-1.28,0.341-1.877,0.619c-0.213,0.107-0.427,0.085-0.64,0.213L5.333,182.72c-0.427,0.256-0.683,0.64-1.067,0.939
			c-0.533,0.448-1.067,0.832-1.515,1.365c-0.512,0.555-0.875,1.173-1.237,1.835c-0.299,0.533-0.597,1.024-0.811,1.6
			c-0.256,0.789-0.384,1.557-0.469,2.389C0.192,191.253,0,191.595,0,192v213.333C0,411.221,4.779,416,10.667,416H352
			c1.771,0,3.349-0.533,4.821-1.28c0.149-0.085,0.32-0.043,0.448-0.128l149.333-85.333c0.384-0.213,0.597-0.555,0.939-0.811
			c0.64-0.469,1.259-0.939,1.771-1.557c0.405-0.469,0.704-0.981,1.024-1.515c0.384-0.64,0.725-1.259,0.981-1.984
			c0.213-0.619,0.299-1.259,0.384-1.92c0.064-0.491,0.299-0.939,0.299-1.472V106.667C512,106.432,511.872,106.219,511.851,105.984z
			 M341.333,394.667h-320v-192h320V394.667z M349.163,181.333H50.816l112-64h298.347L349.163,181.333z M490.667,313.792l-128,73.152
			V198.165l128-73.152V313.792z"/>
	</g>
</g>
<g>
</g>
<g>
</g>
<g>
</g>
<g>
</g>
<g>
</g>
<g>
</g>
<g>
</g>
<g>
</g>
<g>
</g>
<g>
</g>
<g>
</g>
<g>
</g>
<g>
</g>
<g>
</g>
<g>
</g>
</svg>
