<svg xmlns="http://www.w3.org/2000/svg" viewBox="0 0 24 24"><title>paperclip</title><g id="paperclip"><path d="M21.057,2.942a6.665,6.665,0,0,0-9.406,0L10.5,4.092a6,6,0,0,1,2.94.949l.153-.152A3.9,3.9,0,1,1,19.109,10.4l-8.7,8.7a3.9,3.9,0,1,1-5.515-5.515L9.246,9.24a1.258,1.258,0,0,1,1.782,0h0a1.268,1.268,0,0,1,0,1.785L7.785,14.27A1.375,1.375,0,0,0,9.73,16.215l3.245-3.245a4.012,4.012,0,0,0,0-5.672l0,0h0A4.013,4.013,0,0,0,7.3,7.3l-4.35,4.351a6.65,6.65,0,0,0,9.4,9.405l8.7-8.7A6.66,6.66,0,0,0,21.057,2.942Z"/></g></svg>