<svg xmlns="http://www.w3.org/2000/svg" viewBox="0 0 24 24"><title>settings</title><g id="settings"><path d="M22.508,14.458l-1.589-1.308A9.011,9.011,0,0,0,21,12h0a9.011,9.011,0,0,0-.082-1.149l1.59-1.308A2,2,0,0,0,22.969,7L21.816,5a2,2,0,0,0-2.434-.873l-1.934.725a9,9,0,0,0-1.985-1.158l-.337-2.024A2,2,0,0,0,13.152,0H10.847A2,2,0,0,0,8.874,1.671L8.537,3.695A8.993,8.993,0,0,0,6.552,4.853L4.618,4.129A2,2,0,0,0,2.184,5L1.031,7a2,2,0,0,0,.461,2.544l1.589,1.308A9.011,9.011,0,0,0,3,12H3a9.011,9.011,0,0,0,.082,1.149l-1.59,1.308A2,2,0,0,0,1.031,17l1.153,2a2,2,0,0,0,2.434.873l1.934-.725a9,9,0,0,0,1.985,1.158l.337,2.024A2,2,0,0,0,10.848,24h2.305a2,2,0,0,0,1.973-1.671l.337-2.024a8.993,8.993,0,0,0,1.985-1.158l1.934.725A2,2,0,0,0,21.816,19l1.153-2A2,2,0,0,0,22.508,14.458ZM12,16a4,4,0,1,1,4-4A4,4,0,0,1,12,16Z"/></g></svg>