<svg id="Capa_1" enable-background="new 0 0 512.002 512.002" height="512" viewBox="0 0 512.002 512.002" width="512" xmlns="http://www.w3.org/2000/svg"><g><g><path d="m328.547 239.3h-70.312l4.739-66.646c.189-2.656 2.399-4.714 5.061-4.714h50.713c2.663 0 4.872 2.058 5.061 4.714z" fill="#fcb44d"/><path d="m328.55 239.297h-22.234l-4.739-66.64c-.183-2.659-2.69-4.719-5.359-4.719h22.529c2.659 0 4.871 2.06 5.064 4.719z" fill="#fca62f"/><g><path d="m319.625 366.412h-52.468c-5.604 0-10.148-4.543-10.148-10.148v-119.395c0-2.802 2.272-5.074 5.074-5.074h62.616c2.802 0 5.074 2.272 5.074 5.074v119.395c0 5.605-4.544 10.148-10.148 10.148z" fill="#f8f3f1"/><path d="m329.77 236.871v119.388c0 5.612-4.536 10.148-10.148 10.148h-26.232c5.601 0 10.148-4.536 10.148-10.148v-119.388c0-2.801-2.273-5.074-5.074-5.074h26.232c2.801.001 5.074 2.274 5.074 5.074z" fill="#efe2dd"/><path d="m317.726 390.505h-48.671c-6.653 0-12.046-5.393-12.046-12.046 0-6.653 5.393-12.046 12.046-12.046h48.671c6.653 0 12.046 5.393 12.046 12.046.001 6.652-5.393 12.046-12.046 12.046z" fill="#e0d3ce"/><path d="m329.77 378.463c0 3.318-1.35 6.332-3.521 8.514-2.182 2.182-5.196 3.531-8.524 3.531h-26.232c3.328 0 6.342-1.35 8.514-3.531 2.182-2.182 3.532-5.196 3.532-8.514 0-6.657-5.388-12.055-12.045-12.055h26.232c6.655-.001 12.044 5.398 12.044 12.055z" fill="#cdbfbb"/><path d="m329.773 402.551c0-6.653-5.393-12.046-12.046-12.046h-48.671c-6.653 0-12.046 5.393-12.046 12.046v101.951h72.764v-101.951z" fill="#20b69f"/><path d="m329.77 402.553v101.944h-26.232v-101.944c0-6.657-5.388-12.045-12.045-12.045h26.232c6.656 0 12.045 5.388 12.045 12.045z" fill="#17998c"/></g></g><g><g><path d="m247.62 120.992c3.769-5.639 1.053-13.317-5.422-15.336-25.819-8.049-53.562-12.433-82.454-12.433s-56.634 4.384-82.454 12.433c-6.475 2.019-9.191 9.697-5.422 15.336l87.876 131.474z" fill="#fcc16d"/><path d="m247.623 120.995-87.879 131.474-14.41-21.564 78.503-117.45c2.923-4.374 1.938-9.985-1.674-13.212 6.789 1.553 13.476 3.359 20.032 5.409 6.473 2.019 9.193 9.7 5.428 15.343z" fill="#fcb44d"/></g><g><path d="m175.83 366.412h-32.173c-5.604 0-10.148-4.543-10.148-10.148v-127.227c0-9.686 7.852-17.538 17.538-17.538h17.392c9.686 0 17.538 7.852 17.538 17.538v127.227c.001 5.605-4.542 10.148-10.147 10.148z" fill="#f8f3f1"/><path d="m185.975 229.04v127.219c0 5.604-4.543 10.148-10.148 10.148h-26.232c5.601 0 10.148-4.536 10.148-10.148v-139.683c0-2.801-2.273-5.074-5.074-5.074h13.768c9.686 0 17.538 7.852 17.538 17.538z" fill="#efe2dd"/><path d="m173.932 390.505h-28.376c-6.653 0-12.046-5.393-12.046-12.046 0-6.653 5.393-12.046 12.046-12.046h28.376c6.653 0 12.046 5.393 12.046 12.046 0 6.652-5.393 12.046-12.046 12.046z" fill="#e0d3ce"/><path d="m185.975 378.463c0 3.318-1.35 6.332-3.521 8.514-2.182 2.182-5.196 3.531-8.524 3.531h-26.232c3.328 0 6.342-1.35 8.514-3.531 2.182-2.182 3.532-5.196 3.532-8.514 0-6.657-5.388-12.055-12.045-12.055h26.232c6.656-.001 12.044 5.398 12.044 12.055z" fill="#cdbfbb"/><path d="m185.978 402.551c0-6.653-5.393-12.046-12.046-12.046h-28.376c-6.653 0-12.046 5.393-12.046 12.046v101.951h52.468z" fill="#20b69f"/><path d="m185.975 402.553v101.944h-26.232v-101.944c0-6.657-5.388-12.045-12.045-12.045h26.232c6.657 0 12.045 5.388 12.045 12.045z" fill="#17998c"/></g></g><g><g><path d="m441.862 238.289h-52.468l4.741-168.472c.22-7.827 1.64-15.573 4.211-22.969l12.489-35.936c1.579-4.544 8.006-4.544 9.585 0l12.489 35.936c2.57 7.396 3.991 15.143 4.211 22.969z" fill="#fcc16d"/><path d="m441.862 238.292h-22.315l-4.739-168.472c-.223-7.834-1.644-15.577-4.211-22.974l-6.129-17.627 6.363-18.307c1.583-4.546 8.006-4.546 9.59 0l12.492 35.933c2.567 7.398 3.988 15.14 4.211 22.974z" fill="#fcb44d"/><path d="m431.714 366.412h-32.173c-5.604 0-10.148-4.543-10.148-10.148v-183.039c0-9.686 7.852-17.538 17.538-17.538h17.392c9.686 0 17.538 7.852 17.538 17.538v183.039c.001 5.605-4.543 10.148-10.147 10.148z" fill="#f8f3f1"/><path d="m441.859 173.228v183.032c0 5.604-4.543 10.148-10.148 10.148h-26.232c5.601 0 10.148-4.536 10.148-10.148v-195.496c0-2.801-2.273-5.074-5.074-5.074h13.768c9.686 0 17.538 7.852 17.538 17.538z" fill="#efe2dd"/><path d="m429.815 390.505h-28.375c-6.653 0-12.046-5.393-12.046-12.046 0-6.653 5.393-12.046 12.046-12.046h28.376c6.653 0 12.046 5.393 12.046 12.046 0 6.652-5.394 12.046-12.047 12.046z" fill="#e0d3ce"/><path d="m441.859 378.463c0 3.318-1.35 6.332-3.521 8.514-2.182 2.182-5.196 3.531-8.524 3.531h-26.232c3.328 0 6.342-1.35 8.514-3.531 2.182-2.182 3.531-5.196 3.531-8.514 0-6.657-5.388-12.055-12.045-12.055h26.232c6.656-.001 12.045 5.398 12.045 12.055z" fill="#cdbfbb"/><path d="m441.862 402.551c0-6.653-5.393-12.046-12.046-12.046h-28.376c-6.653 0-12.046 5.393-12.046 12.046v101.951h52.468z" fill="#20b69f"/><path d="m441.859 402.553v101.944h-26.232v-101.944c0-6.657-5.388-12.045-12.045-12.045h26.232c6.656 0 12.045 5.388 12.045 12.045z" fill="#17998c"/><g><path d="m333.563 367.047c2.315-2.986 3.709-6.721 3.709-10.783v-119.395c0-2.387-.681-4.613-1.841-6.516l-4.144-58.234c-.468-6.547-5.976-11.675-12.54-11.675h-50.71c-6.563 0-12.071 5.127-12.542 11.678l-4.142 58.227c-1.162 1.904-1.844 4.132-1.844 6.522v119.396c0 4.062 1.394 7.798 3.709 10.784-2.323 3.215-3.709 7.15-3.709 11.411 0 4.545 1.573 8.723 4.185 12.046-2.612 3.324-4.185 7.501-4.185 12.046v101.952c0 4.142 3.357 7.5 7.5 7.5s7.5-3.358 7.5-7.5v-101.955c0-2.507 2.04-4.546 4.547-4.546h48.671c2.507 0 4.547 2.039 4.547 4.546v101.952c0 4.142 3.357 7.5 7.5 7.5s7.5-3.358 7.5-7.5v-101.952c0-4.545-1.573-8.723-4.185-12.046 2.612-3.324 4.185-7.501 4.185-12.046-.001-4.262-1.387-8.196-3.711-11.412zm-64.508 15.958c-2.507 0-4.547-2.04-4.547-4.546s2.04-4.546 4.547-4.546h48.671c2.507 0 4.547 2.04 4.547 4.546s-2.04 4.546-4.547 4.546zm-1.898-24.093c-1.46 0-2.648-1.188-2.648-2.648v-72.517h57.764v72.517c0 1.46-1.188 2.648-2.647 2.648-.292 0-52.178 0-52.469 0zm3.139-183.47h46.189l3.476 48.853h-8.901c-4.143 0-7.5 3.358-7.5 7.5s3.357 7.5 7.5 7.5h11.212v29.453h-57.764v-29.453h11.156c4.143 0 7.5-3.358 7.5-7.5s-3.357-7.5-7.5-7.5h-8.843z"/><path d="m253.855 125.16c3.123-4.672 3.84-10.391 1.968-15.69-1.873-5.301-6.025-9.301-11.393-10.975-16.875-5.26-34.445-8.945-52.224-10.951-4.116-.463-7.829 2.496-8.294 6.612-.464 4.116 2.496 7.829 6.612 8.293 16.837 1.9 33.471 5.388 49.44 10.366 1.105.345 1.549 1.183 1.714 1.652.166.468.348 1.396-.295 2.357l-60.493 90.505c-1.408-.811-2.9-1.487-4.462-2.015l15.296-79.692c.781-4.068-1.884-7.999-5.951-8.779-4.08-.78-8 1.884-8.779 5.952l-15.585 81.205h-3.33l-15.586-81.204c-.78-4.068-4.71-6.732-8.779-5.952-4.067.781-6.732 4.711-5.951 8.779l15.296 79.692c-1.562.527-3.055 1.204-4.463 2.015l-60.492-90.506c-.643-.96-.461-1.889-.295-2.356.165-.469.608-1.307 1.714-1.652 24.566-7.659 50.338-11.716 76.598-12.059 4.142-.054 7.456-3.456 7.401-7.598-.054-4.142-3.433-7.443-7.597-7.401-27.709.362-54.917 4.647-80.867 12.737-5.367 1.674-9.52 5.674-11.393 10.975-1.872 5.299-1.155 11.018 1.968 15.689l62.58 93.629c-1.411 3.131-2.203 6.599-2.203 10.25v127.227c0 4.062 1.394 7.798 3.709 10.784-2.323 3.215-3.709 7.15-3.709 11.411 0 4.545 1.573 8.723 4.185 12.046-2.612 3.324-4.185 7.501-4.185 12.046v101.952c0 4.142 3.357 7.5 7.5 7.5s7.5-3.358 7.5-7.5v-101.953c0-2.507 2.04-4.546 4.547-4.546h28.375c2.507 0 4.547 2.039 4.547 4.546v101.952c0 4.142 3.357 7.5 7.5 7.5s7.5-3.358 7.5-7.5v-101.952c0-4.545-1.573-8.723-4.185-12.046 2.612-3.324 4.185-7.501 4.185-12.046 0-4.261-1.386-8.195-3.709-11.411 2.316-2.986 3.709-6.721 3.709-10.784v-127.226c0-3.651-.792-7.119-2.203-10.25zm-79.924 257.845h-28.375c-2.507 0-4.547-2.04-4.547-4.546s2.04-4.546 4.547-4.546h28.375c2.507 0 4.547 2.04 4.547 4.546s-2.04 4.546-4.547 4.546zm-22.884-164.005h17.393c5.535 0 10.038 4.503 10.038 10.038v19.414h-37.469v-19.414c0-5.536 4.503-10.038 10.038-10.038zm-7.39 139.912c-1.46 0-2.647-1.188-2.647-2.648v-92.813h37.469v92.813c0 1.46-1.188 2.648-2.647 2.648-.292 0-31.884 0-32.175 0z"/><path d="m447.223 163.118-2.609-93.517c-.243-8.604-1.798-17.087-4.623-25.21l-12.489-35.939c-1.784-5.135-6.445-8.452-11.875-8.452s-10.092 3.317-11.874 8.45l-12.49 35.938c-2.826 8.125-4.381 16.608-4.623 25.213l-2.609 93.52c-1.37 3.093-2.137 6.509-2.137 10.104v76.2c0 4.142 3.357 7.5 7.5 7.5s7.5-3.358 7.5-7.5v-41.786h37.469v148.625c0 1.46-1.188 2.648-2.648 2.648-.291 0-31.882 0-32.173 0-1.46 0-2.647-1.188-2.647-2.648v-71.444c0-4.142-3.357-7.5-7.5-7.5s-7.5 3.358-7.5 7.5v71.444c0 4.062 1.394 7.798 3.709 10.784-2.323 3.215-3.709 7.15-3.709 11.411 0 4.545 1.573 8.723 4.185 12.046-2.612 3.324-4.185 7.501-4.185 12.046v101.952c0 4.142 3.357 7.5 7.5 7.5s7.5-3.358 7.5-7.5v-101.952c0-2.507 2.039-4.546 4.546-4.546h28.376c2.507 0 4.547 2.039 4.547 4.546v101.952c0 4.142 3.357 7.5 7.5 7.5s7.5-3.358 7.5-7.5v-101.952c0-4.545-1.573-8.723-4.185-12.046 2.612-3.324 4.185-7.501 4.185-12.046 0-4.261-1.386-8.195-3.709-11.411 2.316-2.986 3.709-6.721 3.709-10.784v-183.039c-.002-3.596-.77-7.014-2.141-10.107zm-41.793-113.804 10.196-29.338 10.196 29.339c2.32 6.673 3.598 13.641 3.797 20.708l2.234 79.323c-2.378-.751-4.907-1.159-7.53-1.159h-17.393c-2.624 0-5.154.408-7.532 1.16l2.234-79.324c.2-7.067 1.477-14.034 3.798-20.709zm-8.537 143.325v-19.414c0-5.535 4.503-10.038 10.038-10.038h17.393c5.535 0 10.038 4.503 10.038 10.038v19.414zm32.922 190.366h-28.376c-2.507 0-4.546-2.04-4.546-4.546s2.039-4.546 4.546-4.546h28.376c2.507 0 4.547 2.04 4.547 4.546s-2.04 4.546-4.547 4.546z"/></g></g></g></g></svg>