<svg id="Capa_1" enable-background="new 0 0 496.759 496.759" height="512" viewBox="0 0 496.759 496.759" width="512" xmlns="http://www.w3.org/2000/svg"><g><path d="m133.392 410.963h-107.496c-4.142 0-7.5-3.358-7.5-7.5s3.358-7.5 7.5-7.5h107.496c4.142 0 7.5 3.358 7.5 7.5s-3.358 7.5-7.5 7.5z" fill="#c9bfc8"/></g><path d="m241.88 395.963h-59.4c-4.142 0-7.5 3.358-7.5 7.5s3.358 7.5 7.5 7.5h59.4z" fill="#c9bfc8"/><path d="m413.64 437.98h-24.02l-86.78-413.15c-1.3-5.97-6.58-10.23-12.7-10.23h-54.07l-.065.25-.126-.65-27 31-87 366-5.847 37.682-20.152 4.318-.314 29.36h122.604c3.49 0 6.32-2.83 6.32-6.33v-31.92c0-3.5-2.83-6.33-6.32-6.33h-25.35l11.64-71.01h86.84l11.64 71.01h-25.35c-3.49 0-6.32 2.83-6.32 6.33v31.92c0 3.5 2.83 6.33 6.32 6.33h136.05c3.49 0 6.32-2.83 6.32-6.33v-31.92c0-3.5-2.83-6.33-6.32-6.33zm-195.4-139.66 26.23-130.72c.74-3.73 6.08-3.73 6.82 0l26.23 130.72z" fill="#fee45a"/><path d="m111.8 466.31c0-3.5 2.83-6.33 6.32-6.33h15.305c5.079 0 9.463-3.559 10.507-8.529l84.988-404.621c.101-.464.234-.914.382-1.357l6.551-30.873h-30.233c-6.12 0-11.4 4.26-12.7 10.23l-86.78 413.15h-24.02c-3.49 0-6.32 2.83-6.32 6.33v31.92c0 3.5 2.83 6.33 6.32 6.33h29.68z" fill="#fed402"/><g><path d="m475.811 407.536c-4.142 0-7.5-3.358-7.5-7.5v-332.151c0-4.142 3.358-7.5 7.5-7.5s7.5 3.358 7.5 7.5v332.151c0 4.142-3.358 7.5-7.5 7.5z" fill="#c9bfc8"/></g><path d="m463.863 395.963h-221.983v15h221.983c4.142 0 7.5-3.358 7.5-7.5s-3.358-7.5-7.5-7.5z" fill="#c9bfc8"/><g><path d="m20.948 404.536c-4.142 0-7.5-3.358-7.5-7.5v-329.151c0-4.142 3.358-7.5 7.5-7.5s7.5 3.358 7.5 7.5v329.151c0 4.142-3.358 7.5-7.5 7.5z" fill="#c9bfc8"/></g><g><path d="m474.863 74.436h-451.967c-4.142 0-7.5-3.358-7.5-7.5s3.358-7.5 7.5-7.5h451.967c4.142 0 7.5 3.358 7.5 7.5s-3.358 7.5-7.5 7.5z" fill="#c9bfc8"/></g><g fill="#f47c7c"><path d="m36.041 87.884h-30.186c-3.234 0-5.855-2.621-5.855-5.855v-30.185c0-3.234 2.621-5.855 5.855-5.855h30.185c3.234 0 5.855 2.621 5.855 5.855v30.185c.001 3.234-2.621 5.855-5.854 5.855z"/><path d="m36.041 419.931h-30.186c-3.234 0-5.855-2.621-5.855-5.855v-30.185c0-3.234 2.621-5.855 5.855-5.855h30.185c3.234 0 5.855 2.621 5.855 5.855v30.185c.001 3.234-2.621 5.855-5.854 5.855z"/><path d="m460.718 87.884h30.185c3.234 0 5.855-2.621 5.855-5.855v-30.185c0-3.234-2.621-5.855-5.855-5.855h-30.185c-3.234 0-5.855 2.621-5.855 5.855v30.185c0 3.234 2.622 5.855 5.855 5.855z"/><path d="m460.718 419.931h30.185c3.234 0 5.855-2.621 5.855-5.855v-30.185c0-3.234-2.621-5.855-5.855-5.855h-30.185c-3.234 0-5.855 2.621-5.855 5.855v30.185c0 3.234 2.622 5.855 5.855 5.855z"/></g></svg>